<svg width="24" height="24" viewBox="0 0 24 24" fill="none" xmlns="http://www.w3.org/2000/svg">
<path d="M18.8712 18.8712H15.9375V14.276C15.9375 13.1804 15.9177 11.7696 14.4113 11.7696C12.8834 11.7696 12.6491 12.9642 12.6491 14.1951V18.8712H9.71537V9.4217H12.5319V10.7136H12.5715C13.1457 9.73355 14.2149 9.14615 15.3501 9.1874C18.3234 9.1874 18.8728 11.1426 18.8728 13.6886L18.8712 18.8696V18.8712ZM6.40548 8.12975C5.95483 8.12759 5.52322 7.94772 5.2044 7.6292C4.88558 7.31069 4.70529 6.87926 4.70269 6.42861C4.70269 5.49471 5.47159 4.72581 6.40548 4.72581C7.33938 4.72581 8.10663 5.49471 8.10828 6.42861C8.10828 7.3625 7.33938 8.12975 6.40548 8.12975ZM7.87233 18.8712H4.93534V9.4217H7.87233V18.8712ZM20.3314 2.00002H3.46024C3.07769 1.9978 2.70972 2.14664 2.4363 2.4142C2.16287 2.68176 2.00608 3.04641 2 3.42892V20.3711C2.00608 20.7536 2.16287 21.1182 2.4363 21.3858C2.70972 21.6533 3.07769 21.8022 3.46024 21.8H20.3331C20.7165 21.8031 21.0857 21.6547 21.3603 21.3871C21.635 21.1196 21.793 20.7544 21.7999 20.3711V3.42727C21.793 3.04419 21.6349 2.67937 21.3601 2.41234C21.0854 2.1453 20.7162 1.99769 20.3331 2.00167L20.3314 2.00002Z" fill="#0A66C2"/>
</svg>
