<svg width="47" height="48" viewBox="0 0 47 48" fill="none" xmlns="http://www.w3.org/2000/svg">
<g clip-path="url(#clip0_4043_13341)">
<path fill-rule="evenodd" clip-rule="evenodd" d="M16.0561 0.603516C13.4145 0.603516 10.8811 1.65289 9.01324 3.52078L0 12.534V16.6596C0 19.5744 1.25203 22.1967 3.24762 24.0181C1.25203 25.8396 0 28.4619 0 31.3767V35.5023L9.01324 44.5155C10.8811 46.3834 13.4145 47.4328 16.0561 47.4328C18.9709 47.4328 21.5932 46.1808 23.4146 44.1852C25.2361 46.1808 27.8584 47.4328 30.7732 47.4328C33.4148 47.4328 35.9481 46.3834 37.816 44.5155L46.8293 35.5023V31.3767C46.8293 28.4619 45.5773 25.8396 43.5817 24.0181C45.5773 22.1967 46.8293 19.5744 46.8293 16.6596V12.534L37.816 3.52078C35.9481 1.65289 33.4148 0.603516 30.7732 0.603516C27.8584 0.603516 25.2361 1.85554 23.4146 3.85113C21.5932 1.85554 18.9709 0.603516 16.0561 0.603516ZM30.1566 24.0181C30.0444 23.9157 29.9342 23.8104 29.8263 23.7025L23.4146 17.2909L17.003 23.7025C16.8951 23.8104 16.7849 23.9157 16.6726 24.0181C16.7849 24.1206 16.8951 24.2258 17.003 24.3338L23.4146 30.7454L29.8263 24.3338C29.9342 24.2258 30.0444 24.1206 30.1566 24.0181ZM26.0162 35.5023V37.4727C26.0162 40.0998 28.146 42.2296 30.7732 42.2296C32.0347 42.2296 33.2447 41.7284 34.1368 40.8363L41.6261 33.347V31.3767C41.6261 28.7495 39.4963 26.6197 36.8692 26.6197C35.6076 26.6197 34.3976 27.1209 33.5055 28.013L26.0162 35.5023ZM20.813 35.5023L13.3237 28.013C12.4317 27.1209 11.2217 26.6197 9.96014 26.6197C7.33298 26.6197 5.20325 28.7495 5.20325 31.3767V33.347L12.6925 40.8363C13.5846 41.7284 14.7945 42.2296 16.0561 42.2296C18.6832 42.2296 20.813 40.0998 20.813 37.4727V35.5023ZM20.813 10.5637V12.534L13.3237 20.0232C12.4317 20.9153 11.2217 21.4165 9.96014 21.4165C7.33298 21.4165 5.20325 19.2867 5.20325 16.6596V14.6893L12.6925 7.20002C13.5846 6.30794 14.7945 5.80677 16.0561 5.80677C18.6832 5.80677 20.813 7.9365 20.813 10.5637ZM33.5055 20.0232L26.0162 12.534V10.5637C26.0162 7.9365 28.146 5.80677 30.7732 5.80677C32.0347 5.80677 33.2447 6.30794 34.1368 7.20002L41.6261 14.6893V16.6596C41.6261 19.2867 39.4963 21.4165 36.8692 21.4165C35.6076 21.4165 34.3976 20.9153 33.5055 20.0232Z" fill="#2979FF"/>
</g>
<defs>
<clipPath id="clip0_4043_13341">
<rect width="46.8293" height="48" fill="white"/>
</clipPath>
</defs>
</svg>
