<svg width="32" height="24" viewBox="0 0 32 24" fill="none" xmlns="http://www.w3.org/2000/svg">
<g clip-path="url(#clip0_4043_13364)">
<path d="M7.321 23.8822V11.5825L3.5065 8.09279L0.0859375 6.15625V21.7116C0.0859375 22.9126 1.05899 23.8822 2.25651 23.8822H7.321Z" fill="#4285F4"/>
<path d="M24.6875 23.8821H29.752C30.9531 23.8821 31.9226 22.9089 31.9226 21.7115V6.15625L28.0482 8.37432L24.6875 11.5824V23.8821Z" fill="#34A853"/>
<path d="M7.32373 11.5813L6.80469 6.77545L7.32373 2.17578L16.0058 8.68737L24.6878 2.17578L25.2684 6.52712L24.6878 11.5813L16.0058 18.0929L7.32373 11.5813Z" fill="#EA4335"/>
<path d="M24.6875 2.17662V11.5821L31.9226 6.1559V3.26185C31.9226 0.577703 28.8585 -0.952453 26.7134 0.657288L24.6875 2.17662Z" fill="#FBBC04"/>
<path d="M0.0859375 6.15596L3.41348 8.65171L7.321 11.5822V2.17668L5.29506 0.657345C3.14625 -0.95252 0.0859375 0.577759 0.0859375 3.26178V6.15596Z" fill="#C5221F"/>
</g>
<defs>
<clipPath id="clip0_4043_13364">
<rect width="31.8342" height="24" fill="white" transform="translate(0.0859375)"/>
</clipPath>
</defs>
</svg>
